<?xml version="1.0" standalone="no"?>
<!DOCTYPE svg PUBLIC "-//W3C//DTD SVG 20010904//EN"
 "http://www.w3.org/TR/2001/REC-SVG-20010904/DTD/svg10.dtd">
<svg version="1.0" xmlns="http://www.w3.org/2000/svg"
 width="920.000000pt" height="920.000000pt" viewBox="0 0 920.000000 920.000000"
 preserveAspectRatio="xMidYMid meet">
<metadata>
Created by potrace 1.14, written by Peter Selinger 2001-2017
</metadata>
<g transform="translate(0.000000,920.000000) scale(0.100000,-0.100000)"
fill="#000000" stroke="none">
<path d="M4260 9189 c-764 -66 -1404 -271 -2036 -650 -325 -196 -590 -404
-874 -689 -289 -288 -493 -548 -695 -884 -529 -881 -744 -1894 -620 -2931 124
-1036 617 -2020 1377 -2750 561 -539 1227 -915 1998 -1129 178 -49 479 -105
715 -132 214 -26 718 -26 940 -1 1309 147 2431 782 3217 1822 497 658 803
1446 895 2305 24 228 24 683 -1 905 -95 862 -390 1624 -886 2290 -636 855
-1554 1467 -2581 1720 -360 89 -655 125 -1054 130 -159 2 -337 -1 -395 -6z
m895 -143 c366 -49 651 -118 989 -241 1215 -440 2195 -1416 2654 -2641 126
-337 207 -677 253 -1067 32 -263 32 -723 0 -985 -67 -561 -208 -1038 -451
-1522 -625 -1250 -1799 -2135 -3178 -2395 -282 -53 -470 -69 -822 -69 -350 0
-538 16 -820 69 -1212 230 -2260 931 -2934 1962 -526 805 -784 1790 -716 2738
92 1287 693 2428 1700 3227 625 495 1405 822 2205 923 237 29 327 34 630 30
249 -3 332 -8 490 -29z"/>
<path d="M3323 7699 c-104 -51 -203 -205 -278 -431 -91 -278 -131 -598 -121
-978 7 -311 35 -522 97 -740 116 -407 300 -599 485 -509 129 62 259 297 329
596 58 245 69 362 70 723 0 272 -3 360 -18 465 -64 455 -207 788 -375 874 -55
28 -133 28 -189 0z"/>
<path d="M5795 7701 c-186 -86 -336 -461 -390 -976 -21 -197 -16 -611 9 -805
59 -448 210 -797 380 -879 201 -98 405 147 515 619 82 355 95 882 30 1267 -65
393 -213 706 -364 774 -51 24 -129 24 -180 0z"/>
<path d="M7500 4549 c-25 -4 -59 -11 -77 -14 -106 -19 -135 -149 -50 -221 33
-28 48 -29 200 -8 l49 7 -7 -84 c-38 -490 -176 -900 -439 -1299 -349 -529
-896 -944 -1536 -1162 -657 -224 -1425 -224 -2081 1 -175 60 -213 75 -374 154
-812 398 -1374 1097 -1549 1927 -31 146 -66 430 -53 430 3 0 39 -6 80 -14 94
-18 136 -9 172 38 44 58 27 149 -34 181 -96 49 -369 57 -526 15 -147 -39 -278
-122 -289 -183 -14 -76 46 -157 117 -157 16 0 62 18 102 40 96 53 105 52 105
-8 0 -178 76 -543 163 -783 441 -1216 1638 -2045 3012 -2085 951 -29 1842 309
2497 944 455 442 734 945 858 1548 22 108 48 308 51 397 2 32 7 57 13 57 6 0
37 -16 70 -37 97 -59 173 -46 211 37 37 82 -7 147 -148 214 -108 52 -226 76
-372 75 -66 -1 -140 -5 -165 -10z"/>
</g>
</svg>
